VIC-WA-NT-Beginner-Regular.ufo
<glyph name="exclam" format="2">
  <advance width="232"/>
  <unicode hex="0021"/>
  <outline>
    <contour>
      <point x="88" y="-1" type="curve" smooth="yes"/>
      <point x="111" y="-1"/>
      <point x="128" y="17"/>
      <point x="128" y="40" type="curve" smooth="yes"/>
      <point x="128" y="62"/>
      <point x="111" y="79"/>
      <point x="88" y="79" type="curve" smooth="yes"/>
      <point x="65" y="79"/>
      <point x="48" y="62"/>
      <point x="48" y="40" type="curve" smooth="yes"/>
      <point x="48" y="17"/>
      <point x="65" y="-1"/>
    </contour>
    <contour>
      <point x="111" y="175" type="curve" smooth="yes"/>
      <point x="123" y="174"/>
      <point x="138" y="183"/>
      <point x="141" y="202" type="curve" smooth="yes"/>
      <point x="217" y="629" type="line" smooth="yes"/>
      <point x="219" y="643"/>
      <point x="209" y="650"/>
      <point x="197" y="650" type="curve" smooth="yes"/>
      <point x="184" y="650"/>
      <point x="169" y="643"/>
      <point x="166" y="629" type="curve" smooth="yes"/>
      <point x="90" y="202" type="line" smooth="yes"/>
      <point x="87" y="185"/>
      <point x="99" y="176"/>
    </contour>
  </outline>
</glyph>
<glyph name="numbersign" format="2">
  <advance width="729"/>
  <unicode hex="0023"/>
  <outline>
    <contour>
      <point x="200" y="0" type="curve" smooth="yes"/>
      <point x="213" y="-1"/>
      <point x="228" y="8"/>
      <point x="232" y="28" type="curve" smooth="yes"/>
      <point x="323" y="543" type="line" smooth="yes"/>
      <point x="326" y="559"/>
      <point x="315" y="568"/>
      <point x="302" y="568" type="curve" smooth="yes"/>
      <point x="289" y="568"/>
      <point x="275" y="560"/>
      <point x="272" y="543" type="curve" smooth="yes"/>
      <point x="181" y="28" type="line" smooth="yes"/>
      <point x="178" y="10"/>
      <point x="188" y="0"/>
    </contour>
    <contour>
      <point x="458" y="0" type="curve" smooth="yes"/>
      <point x="471" y="0"/>
      <point x="485" y="9"/>
      <point x="488" y="28" type="curve" smooth="yes"/>
      <point x="579" y="543" type="line" smooth="yes"/>
      <point x="582" y="559"/>
      <point x="571" y="567"/>
      <point x="559" y="568" type="curve" smooth="yes"/>
      <point x="546" y="568"/>
      <point x="531" y="560"/>
      <point x="528" y="543" type="curve" smooth="yes"/>
      <point x="437" y="28" type="line" smooth="yes"/>
      <point x="434" y="9"/>
      <point x="445" y="-1"/>
    </contour>
    <contour>
      <point x="87" y="147" type="curve" smooth="yes"/>
      <point x="632" y="147" type="line" smooth="yes"/>
      <point x="649" y="147"/>
      <point x="658" y="159"/>
      <point x="658" y="170" type="curve" smooth="yes"/>
      <point x="658" y="181"/>
      <point x="650" y="192"/>
      <point x="632" y="192" type="curve" smooth="yes"/>
      <point x="87" y="192" type="line" smooth="yes"/>
      <point x="69" y="192"/>
      <point x="61" y="181"/>
      <point x="61" y="170" type="curve" smooth="yes"/>
      <point x="61" y="159"/>
      <point x="70" y="147"/>
    </contour>
    <contour>
      <point x="129" y="384" type="curve" smooth="yes"/>
      <point x="673" y="384" type="line" smooth="yes"/>
      <point x="691" y="384"/>
      <point x="700" y="395"/>
      <point x="700" y="406" type="curve" smooth="yes"/>
      <point x="700" y="417"/>
      <point x="691" y="429"/>
      <point x="673" y="429" type="curve" smooth="yes"/>
      <point x="129" y="429" type="line" smooth="yes"/>
      <point x="111" y="429"/>
      <point x="102" y="417"/>
      <point x="102" y="406" type="curve" smooth="yes"/>
      <point x="102" y="395"/>
      <point x="111" y="384"/>
    </contour>
  </outline>
</glyph>
<glyph name="dollar" format="2">
  <advance width="482"/>
  <unicode hex="0024"/>
  <outline>
    <contour>
      <point x="180" y="-4" type="curve" smooth="yes"/>
      <point x="311" y="-4"/>
      <point x="386" y="45"/>
      <point x="403" y="141" type="curve" smooth="yes"/>
      <point x="420" y="237"/>
      <point x="362" y="279"/>
      <point x="285" y="325" type="curve" smooth="yes"/>
      <point x="206" y="372"/>
      <point x="156" y="390"/>
      <point x="167" y="447" type="curve" smooth="yes"/>
      <point x="176" y="497"/>
      <point x="230" y="523"/>
      <point x="328" y="523" type="curve" smooth="yes"/>
      <point x="369" y="523"/>
      <point x="408" y="497"/>
      <point x="419" y="462" type="curve" smooth="yes"/>
      <point x="423" y="449"/>
      <point x="436" y="443"/>
      <point x="450" y="447" type="curve" smooth="yes"/>
      <point x="464" y="451"/>
      <point x="467" y="467"/>
      <point x="462" y="485" type="curve" smooth="yes"/>
      <point x="450" y="533"/>
      <point x="393" y="569"/>
      <point x="329" y="569" type="curve" smooth="yes"/>
      <point x="204" y="569"/>
      <point x="134" y="529"/>
      <point x="119" y="451" type="curve" smooth="yes"/>
      <point x="104" y="371"/>
      <point x="169" y="335"/>
      <point x="245" y="289" type="curve" smooth="yes"/>
      <point x="329" y="238"/>
      <point x="365" y="212"/>
      <point x="355" y="148" type="curve" smooth="yes"/>
      <point x="343" y="78"/>
      <point x="291" y="42"/>
      <point x="199" y="42" type="curve" smooth="yes"/>
      <point x="146" y="42"/>
      <point x="101" y="66"/>
      <point x="95" y="99" type="curve" smooth="yes"/>
      <point x="92" y="116"/>
      <point x="78" y="122"/>
      <point x="64" y="118" type="curve" smooth="yes"/>
      <point x="48" y="114"/>
      <point x="45" y="98"/>
      <point x="48" y="82" type="curve" smooth="yes"/>
      <point x="57" y="33"/>
      <point x="113" y="-4"/>
    </contour>
    <contour>
      <point x="344" y="618" type="line" smooth="yes"/>
      <point x="348" y="639"/>
      <point x="338" y="650"/>
      <point x="326" y="650" type="curve" smooth="yes"/>
      <point x="315" y="650"/>
      <point x="302" y="641"/>
      <point x="299" y="622" type="curve" smooth="yes"/>
      <point x="180" y="-52" type="line" smooth="yes"/>
      <point x="177" y="-71"/>
      <point x="187" y="-80"/>
      <point x="198" y="-80" type="curve" smooth="yes"/>
      <point x="209" y="-80"/>
      <point x="222" y="-71"/>
      <point x="225" y="-54" type="curve" smooth="yes"/>
    </contour>
  </outline>
</glyph>
<glyph name="percent" format="2">
  <advance width="513"/>
  <unicode hex="0025"/>
  <outline>
    <contour>
      <point x="166" y="432" type="curve" smooth="yes"/>
      <point x="229" y="432"/>
      <point x="296" y="516"/>
      <point x="296" y="594" type="curve" smooth="yes"/>
      <point x="296" y="634"/>
      <point x="273" y="654"/>
      <point x="228" y="654" type="curve" smooth="yes"/>
      <point x="162" y="654"/>
      <point x="122" y="593"/>
      <point x="122" y="495" type="curve" smooth="yes"/>
      <point x="122" y="456"/>
      <point x="139" y="432"/>
    </contour>
    <contour>
      <point x="173" y="471" type="curve" smooth="yes"/>
      <point x="166" y="471"/>
      <point x="161" y="483"/>
      <point x="161" y="502" type="curve" smooth="yes"/>
      <point x="161" y="571"/>
      <point x="186" y="614"/>
      <point x="226" y="614" type="curve" smooth="yes"/>
      <point x="246" y="614"/>
      <point x="256" y="605"/>
      <point x="256" y="587" type="curve" smooth="yes"/>
      <point x="256" y="531"/>
      <point x="213" y="471"/>
    </contour>
    <contour>
      <point x="429" y="616" type="line" smooth="yes"/>
      <point x="438" y="637"/>
      <point x="423" y="650"/>
      <point x="408" y="650" type="curve" smooth="yes"/>
      <point x="397" y="650"/>
      <point x="386" y="644"/>
      <point x="379" y="627" type="curve" smooth="yes"/>
      <point x="122" y="31" type="line" smooth="yes"/>
      <point x="114" y="12"/>
      <point x="128" y="0"/>
      <point x="144" y="0" type="curve" smooth="yes"/>
      <point x="155" y="0"/>
      <point x="166" y="6"/>
      <point x="172" y="20" type="curve" smooth="yes"/>
    </contour>
    <contour>
      <point x="309" y="-4" type="curve" smooth="yes"/>
      <point x="372" y="-4"/>
      <point x="439" y="80"/>
      <point x="439" y="158" type="curve" smooth="yes"/>
      <point x="439" y="198"/>
      <point x="416" y="218"/>
      <point x="371" y="218" type="curve" smooth="yes"/>
      <point x="305" y="218"/>
      <point x="265" y="157"/>
      <point x="265" y="59" type="curve" smooth="yes"/>
      <point x="265" y="20"/>
      <point x="282" y="-4"/>
    </contour>
    <contour>
      <point x="316" y="35" type="curve" smooth="yes"/>
      <point x="309" y="35"/>
      <point x="304" y="47"/>
      <point x="304" y="66" type="curve" smooth="yes"/>
      <point x="304" y="135"/>
      <point x="329" y="178"/>
      <point x="369" y="178" type="curve" smooth="yes"/>
      <point x="389" y="178"/>
      <point x="399" y="169"/>
      <point x="399" y="151" type="curve" smooth="yes"/>
      <point x="399" y="95"/>
      <point x="356" y="35"/>
    </contour>
  </outline>
</glyph>
<glyph name="ampersand" format="2">
  <advance width="562"/>
  <unicode hex="0026"/>
  <outline>
    <contour>
      <point x="207" y="-4" type="curve" smooth="yes"/>
      <point x="307" y="-4"/>
      <point x="390" y="62"/>
      <point x="493" y="224" type="curve" smooth="yes"/>
      <point x="503" y="239"/>
      <point x="507" y="257"/>
      <point x="493" y="267" type="curve" smooth="yes"/>
      <point x="478" y="277"/>
      <point x="466" y="270"/>
      <point x="454" y="254" type="curve"/>
      <point x="360" y="104"/>
      <point x="288" y="42"/>
      <point x="207" y="42" type="curve" smooth="yes"/>
      <point x="147" y="42"/>
      <point x="110" y="86"/>
      <point x="110.0" y="140.0" type="curve" smooth="yes"/>
      <point x="110" y="222"/>
      <point x="156" y="282"/>
      <point x="246" y="336" type="curve" smooth="yes"/>
      <point x="292" y="363" type="line" smooth="yes"/>
      <point x="403" y="428"/>
      <point x="455" y="491"/>
      <point x="455" y="556" type="curve" smooth="yes"/>
      <point x="455" y="614"/>
      <point x="411" y="650"/>
      <point x="340" y="650" type="curve" smooth="yes"/>
      <point x="230" y="650"/>
      <point x="162" y="600"/>
      <point x="162" y="520" type="curve" smooth="yes"/>
      <point x="162" y="488"/>
      <point x="187" y="424"/>
      <point x="227" y="353" type="curve" smooth="yes"/>
      <point x="413" y="22" type="line" smooth="yes"/>
      <point x="423" y="5"/>
      <point x="441" y="-9"/>
      <point x="456" y="1" type="curve" smooth="yes"/>
      <point x="470" y="11"/>
      <point x="466" y="33"/>
      <point x="458" y="47" type="curve"/>
      <point x="270" y="383" type="line" smooth="yes"/>
      <point x="235" y="447"/>
      <point x="212" y="500"/>
      <point x="212" y="520" type="curve" smooth="yes"/>
      <point x="212" y="572"/>
      <point x="258" y="604"/>
      <point x="332" y="604" type="curve" smooth="yes"/>
      <point x="377" y="604"/>
      <point x="405" y="582"/>
      <point x="405" y="546" type="curve" smooth="yes"/>
      <point x="405" y="500"/>
      <point x="347" y="445"/>
      <point x="245" y="387" type="curve" smooth="yes"/>
      <point x="224" y="375" type="line" smooth="yes"/>
      <point x="115" y="312"/>
      <point x="60" y="238"/>
      <point x="60.0" y="138.0" type="curve" smooth="yes"/>
      <point x="60" y="56"/>
      <point x="116" y="-4"/>
    </contour>
  </outline>
</glyph>
<glyph name="quotesingle" format="2">
  <advance width="182"/>
  <unicode hex="0027"/>
  <outline>
    <contour>
      <point x="146" y="500" type="curve" smooth="yes"/>
      <point x="158" y="500"/>
      <point x="172" y="507"/>
      <point x="174" y="521" type="curve" smooth="yes"/>
      <point x="191" y="620" type="line" smooth="yes"/>
      <point x="194" y="640"/>
      <point x="182" y="650"/>
      <point x="168" y="650" type="curve" smooth="yes"/>
      <point x="156" y="650"/>
      <point x="144" y="642"/>
      <point x="141" y="628" type="curve" smooth="yes"/>
      <point x="123" y="528" type="line" smooth="yes"/>
      <point x="120" y="509"/>
      <point x="132" y="500"/>
    </contour>
  </outline>
</glyph>
<glyph name="parenleft" format="2">
  <advance width="365"/>
  <unicode hex="0028"/>
  <outline>
    <contour>
      <point x="214" y="-297" type="curve" smooth="yes"/>
      <point x="222" y="-292"/>
      <point x="223" y="-278"/>
      <point x="215" y="-261" type="curve" smooth="yes"/>
      <point x="143" y="-110"/>
      <point x="110" y="73"/>
      <point x="136" y="219" type="curve" smooth="yes"/>
      <point x="158" y="342"/>
      <point x="249" y="490"/>
      <point x="366" y="607" type="curve" smooth="yes"/>
      <point x="384" y="625"/>
      <point x="386" y="639"/>
      <point x="379" y="646" type="curve" smooth="yes"/>
      <point x="371" y="654"/>
      <point x="353" y="651"/>
      <point x="333" y="633" type="curve" smooth="yes"/>
      <point x="203" y="509"/>
      <point x="109" y="351"/>
      <point x="85" y="219" type="curve" smooth="yes"/>
      <point x="60" y="78"/>
      <point x="96" y="-114"/>
      <point x="179" y="-283" type="curve" smooth="yes"/>
      <point x="187" y="-299"/>
      <point x="203" y="-303"/>
    </contour>
  </outline>
</glyph>
<glyph name="asterisk" format="2">
  <advance width="352"/>
  <unicode hex="002A"/>
  <outline>
    <contour>
      <point x="312" y="574" type="line" smooth="yes"/>
      <point x="329" y="584"/>
      <point x="332" y="598"/>
      <point x="326" y="607" type="curve" smooth="yes"/>
      <point x="321" y="614"/>
      <point x="309" y="617"/>
      <point x="294" y="608" type="curve" smooth="yes"/>
      <point x="158" y="524" type="line" smooth="yes"/>
      <point x="141" y="513"/>
      <point x="137" y="499"/>
      <point x="143" y="491" type="curve" smooth="yes"/>
      <point x="148" y="483"/>
      <point x="160" y="481"/>
      <point x="176" y="490" type="curve" smooth="yes"/>
    </contour>
    <contour>
      <point x="276" y="492" type="line" smooth="yes"/>
      <point x="289" y="482"/>
      <point x="302" y="484"/>
      <point x="309" y="492" type="curve" smooth="yes"/>
      <point x="314" y="499"/>
      <point x="314" y="511"/>
      <point x="301" y="521" type="curve" smooth="yes"/>
      <point x="193" y="606" type="line" smooth="yes"/>
      <point x="181" y="616"/>
      <point x="169" y="614"/>
      <point x="163" y="606" type="curve" smooth="yes"/>
      <point x="156" y="599"/>
      <point x="156" y="586"/>
      <point x="169" y="576" type="curve" smooth="yes"/>
    </contour>
    <contour>
      <point x="267" y="623" type="line" smooth="yes"/>
      <point x="270" y="641"/>
      <point x="262" y="650"/>
      <point x="253" y="650" type="curve" smooth="yes"/>
      <point x="243" y="650"/>
      <point x="231" y="641"/>
      <point x="228" y="623" type="curve" smooth="yes"/>
      <point x="202" y="475" type="line" smooth="yes"/>
      <point x="199" y="458"/>
      <point x="206" y="450"/>
      <point x="215" y="448" type="curve" smooth="yes"/>
      <point x="225" y="447"/>
      <point x="238" y="456"/>
      <point x="241" y="475" type="curve" smooth="yes"/>
    </contour>
  </outline>
</glyph>
<glyph name="plus" format="2">
  <advance width="426"/>
  <unicode hex="002B"/>
  <outline>
    <contour>
      <point x="201" y="88" type="curve" smooth="yes"/>
      <point x="211" y="88"/>
      <point x="221" y="94"/>
      <point x="225" y="110" type="curve" smooth="yes"/>
      <point x="280" y="331" type="line" smooth="yes"/>
      <point x="284" y="349"/>
      <point x="273" y="361"/>
      <point x="261" y="362" type="curve" smooth="yes"/>
      <point x="251" y="363"/>
      <point x="241" y="356"/>
      <point x="236" y="341" type="curve" smooth="yes"/>
      <point x="182" y="120" type="line" smooth="yes"/>
      <point x="178" y="101"/>
      <point x="189" y="89"/>
    </contour>
    <contour>
      <point x="117" y="205" type="curve" smooth="yes"/>
      <point x="344" y="205" type="line" smooth="yes"/>
      <point x="362" y="205"/>
      <point x="371" y="217"/>
      <point x="371" y="228" type="curve" smooth="yes"/>
      <point x="371" y="239"/>
      <point x="362" y="250"/>
      <point x="344" y="250" type="curve" smooth="yes"/>
      <point x="117" y="250" type="line" smooth="yes"/>
      <point x="99" y="250"/>
      <point x="90" y="239"/>
      <point x="90" y="228" type="curve" smooth="yes"/>
      <point x="90" y="216"/>
      <point x="99" y="205"/>
    </contour>
  </outline>
</glyph>
<glyph name="comma" format="2">
  <advance width="210"/>
  <unicode hex="002C"/>
  <outline>
    <contour>
      <point x="60" y="-102" type="curve" smooth="yes"/>
      <point x="74" y="-102"/>
      <point x="83" y="-93"/>
      <point x="86" y="-78" type="curve" smooth="yes"/>
      <point x="105" y="21" type="line" smooth="yes"/>
      <point x="108" y="39"/>
      <point x="95" y="50"/>
      <point x="80" y="50.0" type="curve" smooth="yes"/>
      <point x="68" y="50"/>
      <point x="57" y="45"/>
      <point x="54" y="28" type="curve" smooth="yes"/>
      <point x="36" y="-75" type="line" smooth="yes"/>
      <point x="33" y="-92"/>
      <point x="43" y="-102"/>
    </contour>
  </outline>
</glyph>
<glyph name="period" format="2">
  <advance width="210"/>
  <unicode hex="002E"/>
  <outline>
    <contour>
      <point x="80" y="-1" type="curve" smooth="yes"/>
      <point x="103" y="-1"/>
      <point x="120" y="17"/>
      <point x="120" y="40" type="curve" smooth="yes"/>
      <point x="120" y="62"/>
      <point x="103" y="79"/>
      <point x="80" y="79" type="curve" smooth="yes"/>
      <point x="57" y="79"/>
      <point x="40" y="62"/>
      <point x="40" y="40" type="curve" smooth="yes"/>
      <point x="40" y="17"/>
      <point x="57" y="-1"/>
    </contour>
  </outline>
</glyph>
<glyph name="slash" format="2">
  <advance width="283"/>
  <unicode hex="002F"/>
  <outline>
    <contour>
      <point x="37" y="0" type="curve" smooth="yes"/>
      <point x="48" y="0"/>
      <point x="59" y="6"/>
      <point x="65" y="20" type="curve" smooth="yes"/>
      <point x="322" y="616" type="line" smooth="yes"/>
      <point x="331" y="637"/>
      <point x="316" y="650"/>
      <point x="301" y="650" type="curve" smooth="yes"/>
      <point x="290" y="650"/>
      <point x="279" y="644"/>
      <point x="272" y="627" type="curve" smooth="yes"/>
      <point x="15" y="31" type="line" smooth="yes"/>
      <point x="7" y="12"/>
      <point x="21" y="0"/>
    </contour>
  </outline>
</glyph>
<glyph name="two" format="2">
  <advance width="412"/>
  <unicode hex="0032"/>
  <outline>
    <contour>
      <point x="38" y="0" type="curve"/>
      <point x="310" y="0" type="line" smooth="yes"/>
      <point x="330" y="0"/>
      <point x="336" y="13"/>
      <point x="336" y="25" type="curve" smooth="yes"/>
      <point x="336" y="37"/>
      <point x="330" y="46"/>
      <point x="310" y="46" type="curve" smooth="yes"/>
      <point x="81" y="46" type="line"/>
      <point x="76" y="27" type="line"/>
      <point x="152" y="115"/>
      <point x="289" y="263"/>
      <point x="302" y="278" type="curve" smooth="yes"/>
      <point x="375" y="367"/>
      <point x="414" y="428"/>
      <point x="414" y="473" type="curve" smooth="yes"/>
      <point x="414" y="532"/>
      <point x="366" y="568"/>
      <point x="287" y="568" type="curve" smooth="yes"/>
      <point x="225" y="568"/>
      <point x="156" y="541"/>
      <point x="113" y="505" type="curve" smooth="yes"/>
      <point x="89" y="485"/>
      <point x="93" y="472"/>
      <point x="101" y="463" type="curve" smooth="yes"/>
      <point x="109" y="454"/>
      <point x="125" y="451"/>
      <point x="150" y="471" type="curve" smooth="yes"/>
      <point x="185" y="500"/>
      <point x="241" y="522"/>
      <point x="287" y="522" type="curve" smooth="yes"/>
      <point x="335" y="522"/>
      <point x="364" y="502"/>
      <point x="364" y="469" type="curve" smooth="yes"/>
      <point x="364" y="430"/>
      <point x="323" y="376"/>
      <point x="286" y="332" type="curve" smooth="yes"/>
      <point x="260" y="301"/>
      <point x="152" y="185"/>
      <point x="22" y="35" type="curve" smooth="yes"/>
      <point x="5" y="16"/>
      <point x="16" y="0"/>
    </contour>
  </outline>
</glyph>
<glyph name="four" format="2">
  <advance width="444"/>
  <unicode hex="0034"/>
  <outline>
    <contour>
      <point x="66" y="135" type="curve" smooth="yes"/>
      <point x="366" y="135" type="line" smooth="yes"/>
      <point x="382" y="135"/>
      <point x="392" y="146"/>
      <point x="392" y="158" type="curve" smooth="yes"/>
      <point x="392" y="170"/>
      <point x="382" y="180"/>
      <point x="366" y="180" type="curve" smooth="yes"/>
      <point x="104" y="180" type="line"/>
      <point x="315" y="540" type="line" smooth="yes"/>
      <point x="325" y="558"/>
      <point x="308" y="569"/>
      <point x="296" y="569" type="curve" smooth="yes"/>
      <point x="284" y="569"/>
      <point x="271" y="565"/>
      <point x="261" y="547" type="curve" smooth="yes"/>
      <point x="44" y="177" type="line" smooth="yes"/>
      <point x="29" y="151"/>
      <point x="48" y="135"/>
    </contour>
    <contour>
      <point x="215" y="0" type="curve" smooth="yes"/>
      <point x="227" y="-1"/>
      <point x="241" y="6"/>
      <point x="245" y="26" type="curve" smooth="yes"/>
      <point x="288" y="258" type="line" smooth="yes"/>
      <point x="291" y="275"/>
      <point x="280" y="285"/>
      <point x="268" y="287" type="curve" smooth="yes"/>
      <point x="255" y="289"/>
      <point x="241" y="282"/>
      <point x="238" y="265" type="curve" smooth="yes"/>
      <point x="195" y="31" type="line" smooth="yes"/>
      <point x="191" y="11"/>
      <point x="202" y="1"/>
    </contour>
  </outline>
</glyph>
<glyph name="five" format="2">
  <advance width="397"/>
  <unicode hex="0035"/>
  <outline>
    <contour>
      <point x="127" y="-4" type="curve" smooth="yes"/>
      <point x="255" y="-4"/>
      <point x="350" y="89"/>
      <point x="350" y="206" type="curve" smooth="yes"/>
      <point x="350" y="291"/>
      <point x="288" y="350"/>
      <point x="205" y="350" type="curve" smooth="yes"/>
      <point x="164" y="350"/>
      <point x="145" y="348"/>
      <point x="93" y="331" type="curve"/>
      <point x="115" y="316" type="line"/>
      <point x="157" y="553" type="line"/>
      <point x="124" y="524" type="line"/>
      <point x="383" y="524" type="line" smooth="yes"/>
      <point x="403" y="524"/>
      <point x="409" y="534"/>
      <point x="409" y="546" type="curve" smooth="yes"/>
      <point x="409" y="558"/>
      <point x="403" y="569"/>
      <point x="383" y="569" type="curve"/>
      <point x="139" y="569" type="line" smooth="yes"/>
      <point x="121" y="569"/>
      <point x="110" y="561"/>
      <point x="106" y="541" type="curve" smooth="yes"/>
      <point x="65" y="310" type="line" smooth="yes"/>
      <point x="62" y="295"/>
      <point x="72" y="286"/>
      <point x="85" y="286" type="curve" smooth="yes"/>
      <point x="89" y="286"/>
      <point x="96" y="288"/>
      <point x="111" y="293" type="curve" smooth="yes"/>
      <point x="134" y="300"/>
      <point x="162" y="304"/>
      <point x="187" y="304" type="curve" smooth="yes"/>
      <point x="252" y="304"/>
      <point x="300" y="262"/>
      <point x="300" y="205" type="curve" smooth="yes"/>
      <point x="300" y="117"/>
      <point x="226" y="42"/>
      <point x="127" y="42" type="curve" smooth="yes"/>
      <point x="102" y="42"/>
      <point x="80" y="50"/>
      <point x="66" y="63" type="curve" smooth="yes"/>
      <point x="59" y="70"/>
      <point x="52" y="72"/>
      <point x="43" y="72" type="curve" smooth="yes"/>
      <point x="32" y="72"/>
      <point x="21" y="67"/>
      <point x="21" y="55" type="curve" smooth="yes"/>
      <point x="21" y="46"/>
      <point x="25" y="37"/>
      <point x="34" y="28" type="curve" smooth="yes"/>
      <point x="55" y="8"/>
      <point x="88" y="-4"/>
    </contour>
  </outline>
</glyph>
<glyph name="seven" format="2">
  <advance width="388"/>
  <unicode hex="0037"/>
  <outline>
    <contour>
      <point x="233" y="0" type="curve" smooth="yes"/>
      <point x="245" y="0"/>
      <point x="257" y="8"/>
      <point x="262" y="26" type="curve" smooth="yes"/>
      <point x="404" y="544" type="line" smooth="yes"/>
      <point x="407" y="556"/>
      <point x="400.0" y="568.0"/>
      <point x="381" y="568" type="curve" smooth="yes"/>
      <point x="134" y="568" type="line" smooth="yes"/>
      <point x="116" y="568"/>
      <point x="107" y="557"/>
      <point x="107" y="546" type="curve" smooth="yes"/>
      <point x="107" y="534"/>
      <point x="116" y="522"/>
      <point x="134" y="522" type="curve" smooth="yes"/>
      <point x="378" y="522" type="line"/>
      <point x="354" y="552" type="line"/>
      <point x="210" y="26" type="line" smooth="yes"/>
      <point x="205" y="8"/>
      <point x="220" y="0"/>
    </contour>
  </outline>
</glyph>
<glyph name="colon" format="2">
  <advance width="210"/>
  <unicode hex="003A"/>
  <outline>
    <contour>
      <point x="80" y="-1" type="curve" smooth="yes"/>
      <point x="103" y="-1"/>
      <point x="120" y="17"/>
      <point x="120" y="40" type="curve" smooth="yes"/>
      <point x="120" y="62"/>
      <point x="103" y="79"/>
      <point x="80" y="79" type="curve" smooth="yes"/>
      <point x="57" y="79"/>
      <point x="40" y="62"/>
      <point x="40" y="40" type="curve" smooth="yes"/>
      <point x="40" y="17"/>
      <point x="57" y="-1"/>
    </contour>
    <contour>
      <point x="126" y="274" type="curve" smooth="yes"/>
      <point x="149" y="274"/>
      <point x="166" y="292"/>
      <point x="166" y="315" type="curve" smooth="yes"/>
      <point x="166" y="337"/>
      <point x="149" y="354"/>
      <point x="126" y="354" type="curve" smooth="yes"/>
      <point x="103" y="354"/>
      <point x="86" y="337"/>
      <point x="86" y="315" type="curve" smooth="yes"/>
      <point x="86" y="292"/>
      <point x="103" y="274"/>
    </contour>
  </outline>
</glyph>
<glyph name="semicolon" format="2">
  <advance width="210"/>
  <unicode hex="003B"/>
  <outline>
    <contour>
      <point x="61" y="-102" type="curve" smooth="yes"/>
      <point x="75" y="-102"/>
      <point x="84" y="-93"/>
      <point x="87" y="-78" type="curve" smooth="yes"/>
      <point x="105" y="21" type="line" smooth="yes"/>
      <point x="108" y="39"/>
      <point x="95" y="50"/>
      <point x="80" y="50.0" type="curve" smooth="yes"/>
      <point x="68" y="50"/>
      <point x="57" y="45"/>
      <point x="54" y="28" type="curve" smooth="yes"/>
      <point x="37" y="-75" type="line" smooth="yes"/>
      <point x="34" y="-92"/>
      <point x="44" y="-102"/>
    </contour>
    <contour>
      <point x="126" y="274" type="curve" smooth="yes"/>
      <point x="149" y="274"/>
      <point x="166" y="292"/>
      <point x="166" y="315" type="curve" smooth="yes"/>
      <point x="166" y="337"/>
      <point x="149" y="354"/>
      <point x="126" y="354" type="curve" smooth="yes"/>
      <point x="103" y="354"/>
      <point x="86" y="337"/>
      <point x="86" y="315" type="curve" smooth="yes"/>
      <point x="86" y="292"/>
      <point x="103" y="274"/>
    </contour>
  </outline>
</glyph>
<glyph name="greater" format="2">
  <advance width="426"/>
  <unicode hex="003E"/>
  <guideline x="131" y="333" angle="0" identifier="GqRMvt6B8x"/>
  <outline>
    <contour>
      <point x="120" y="96" type="curve" smooth="yes"/>
      <point x="352" y="198" type="line" smooth="yes"/>
      <point x="360" y="202"/>
      <point x="366" y="210"/>
      <point x="366" y="218" type="curve" smooth="yes"/>
      <point x="366" y="225"/>
      <point x="363" y="231"/>
      <point x="356" y="237" type="curve" smooth="yes"/>
      <point x="187" y="362" type="line" smooth="yes"/>
      <point x="172" y="373"/>
      <point x="159" y="373"/>
      <point x="150" y="364" type="curve" smooth="yes"/>
      <point x="141" y="353"/>
      <point x="143" y="338"/>
      <point x="158" y="327" type="curve" smooth="yes"/>
      <point x="323" y="205" type="line"/>
      <point x="326" y="235" type="line"/>
      <point x="108" y="139" type="line" smooth="yes"/>
      <point x="88" y="130"/>
      <point x="84" y="120"/>
      <point x="87" y="108" type="curve" smooth="yes"/>
      <point x="90" y="98"/>
      <point x="101" y="88"/>
    </contour>
  </outline>
</glyph>
<glyph name="at" format="2">
  <advance width="668"/>
  <unicode hex="0040"/>
  <outline>
    <contour>
      <point x="283" y="52" type="curve" smooth="yes"/>
      <point x="363" y="52"/>
      <point x="410" y="126"/>
      <point x="437" y="234" type="curve" smooth="yes"/>
      <point x="463" y="338"/>
      <point x="450" y="406"/>
      <point x="383" y="406" type="curve" smooth="yes"/>
      <point x="303" y="406"/>
      <point x="236" y="332"/>
      <point x="209" y="224" type="curve" smooth="yes"/>
      <point x="183" y="120"/>
      <point x="216" y="52"/>
    </contour>
    <contour>
      <point x="294" y="97" type="curve" smooth="yes"/>
      <point x="254" y="97"/>
      <point x="240" y="137"/>
      <point x="259" y="215" type="curve" smooth="yes"/>
      <point x="280" y="300"/>
      <point x="324" y="361"/>
      <point x="372" y="361" type="curve" smooth="yes"/>
      <point x="412" y="361"/>
      <point x="426" y="321"/>
      <point x="407" y="243" type="curve" smooth="yes"/>
      <point x="386" y="158"/>
      <point x="342" y="97"/>
    </contour>
    <contour>
      <point x="279" y="-80" type="curve" smooth="yes"/>
      <point x="320" y="-80"/>
      <point x="369" y="-68"/>
      <point x="399" y="-60" type="curve" smooth="yes"/>
      <point x="419" y="-55"/>
      <point x="423" y="-41"/>
      <point x="420" y="-29" type="curve" smooth="yes"/>
      <point x="415" y="-13"/>
      <point x="396" y="-12"/>
      <point x="384" y="-16" type="curve" smooth="yes"/>
      <point x="354" y="-25"/>
      <point x="311" y="-35"/>
      <point x="276" y="-35" type="curve" smooth="yes"/>
      <point x="155" y="-35"/>
      <point x="86" y="77"/>
      <point x="120" y="214" type="curve" smooth="yes"/>
      <point x="162" y="382"/>
      <point x="272" y="481"/>
      <point x="402" y="481" type="curve" smooth="yes"/>
      <point x="524" y="481"/>
      <point x="593" y="385"/>
      <point x="561" y="250" type="curve" smooth="yes"/>
      <point x="542" y="172"/>
      <point x="488" y="97"/>
      <point x="448" y="97" type="curve" smooth="yes"/>
      <point x="432" y="97"/>
      <point x="430" y="131"/>
      <point x="444" y="185" type="curve" smooth="yes"/>
      <point x="492" y="374" type="line" smooth="yes"/>
      <point x="496" y="390"/>
      <point x="492" y="402"/>
      <point x="475" y="402" type="curve" smooth="yes"/>
      <point x="456" y="402"/>
      <point x="446" y="395"/>
      <point x="441" y="377" type="curve" smooth="yes"/>
      <point x="395" y="196" type="line" smooth="yes"/>
      <point x="372" y="107"/>
      <point x="392" y="52"/>
      <point x="443" y="52" type="curve" smooth="yes"/>
      <point x="506" y="52"/>
      <point x="585" y="146"/>
      <point x="611" y="251" type="curve" smooth="yes"/>
      <point x="650" y="409"/>
      <point x="561" y="526"/>
      <point x="404" y="526" type="curve" smooth="yes"/>
      <point x="247" y="526"/>
      <point x="117" y="410"/>
      <point x="70" y="223" type="curve" smooth="yes"/>
      <point x="27" y="49"/>
      <point x="119" y="-80"/>
    </contour>
  </outline>
</glyph>
<glyph name="A" format="2">
  <advance width="450"/>
  <unicode hex="0041"/>
  <outline>
    <contour>
      <point x="8" y="0" type="curve" smooth="yes"/>
      <point x="28" y="0"/>
      <point x="33" y="7"/>
      <point x="42" y="25" type="curve" smooth="yes"/>
      <point x="287" y="504" type="line"/>
      <point x="319" y="576" type="line"/>
      <point x="319" y="500" type="line"/>
      <point x="357" y="24" type="line" smooth="yes"/>
      <point x="358" y="14"/>
      <point x="361" y="0"/>
      <point x="383" y="0" type="curve"/>
      <point x="401" y="0"/>
      <point x="407" y="11"/>
      <point x="406" y="26" type="curve"/>
      <point x="354" y="631" type="line" smooth="yes"/>
      <point x="353" y="641"/>
      <point x="347" y="650"/>
      <point x="330" y="650" type="curve" smooth="yes"/>
      <point x="308" y="650"/>
      <point x="307" y="639"/>
      <point x="300" y="625" type="curve" smooth="yes"/>
      <point x="-9" y="32" type="line" smooth="yes"/>
      <point x="-19" y="12"/>
      <point x="-7" y="0"/>
    </contour>
    <contour>
      <point x="162" y="304" type="line"/>
      <point x="358" y="304" type="line"/>
      <point x="353" y="347" type="line"/>
      <point x="184" y="347" type="line"/>
    </contour>
  </outline>
</glyph>
<glyph name="D" format="2">
  <advance width="525"/>
  <unicode hex="0044"/>
  <outline>
    <contour>
      <point x="58" y="0" type="curve" smooth="yes"/>
      <point x="122" y="0" type="line" smooth="yes"/>
      <point x="314" y="0"/>
      <point x="476" y="122"/>
      <point x="505" y="344" type="curve" smooth="yes"/>
      <point x="531" y="543"/>
      <point x="390.0" y="650.0"/>
      <point x="205" y="650" type="curve" smooth="yes"/>
      <point x="169" y="650" type="line" smooth="yes"/>
      <point x="148.0" y="650.0"/>
      <point x="143" y="639"/>
      <point x="140" y="623" type="curve" smooth="yes"/>
      <point x="35" y="27" type="line" smooth="yes"/>
      <point x="32" y="12"/>
      <point x="40.0" y="0.0"/>
    </contour>
    <contour>
      <point x="90" y="46" type="line"/>
      <point x="187" y="604" type="line"/>
      <point x="209" y="604" type="line" smooth="yes"/>
      <point x="362" y="604"/>
      <point x="474" y="512"/>
      <point x="455" y="351" type="curve" smooth="yes"/>
      <point x="431" y="149"/>
      <point x="284" y="46"/>
      <point x="122" y="46" type="curve" smooth="yes"/>
    </contour>
  </outline>
</glyph>
<glyph name="F" format="2">
  <advance width="477"/>
  <unicode hex="0046"/>
  <outline>
    <contour>
      <point x="58" y="0" type="curve" smooth="yes"/>
      <point x="80" y="0"/>
      <point x="84" y="15"/>
      <point x="86" y="25" type="curve" smooth="yes"/>
      <point x="187" y="604" type="line"/>
      <point x="481" y="604" type="line" smooth="yes"/>
      <point x="501" y="604"/>
      <point x="507" y="613"/>
      <point x="507" y="625" type="curve" smooth="yes"/>
      <point x="507" y="637"/>
      <point x="501.0" y="650.0"/>
      <point x="481" y="650" type="curve" smooth="yes"/>
      <point x="170" y="650" type="line" smooth="yes"/>
      <point x="148" y="650"/>
      <point x="143" y="639"/>
      <point x="140" y="623" type="curve" smooth="yes"/>
      <point x="35" y="27" type="line" smooth="yes"/>
      <point x="32" y="12"/>
      <point x="40" y="0"/>
    </contour>
    <contour>
      <point x="108" y="304" type="line"/>
      <point x="388" y="304" type="line" smooth="yes"/>
      <point x="408.0" y="304.0"/>
      <point x="414" y="315"/>
      <point x="414" y="327" type="curve" smooth="yes"/>
      <point x="414" y="339"/>
      <point x="408.0" y="350.0"/>
      <point x="388" y="350" type="curve" smooth="yes"/>
      <point x="115" y="350" type="line"/>
    </contour>
  </outline>
</glyph>
<glyph name="G" format="2">
  <advance width="517"/>
  <unicode hex="0047"/>
  <outline>
    <contour>
      <point x="224.0" y="0.0" type="curve" smooth="yes"/>
      <point x="292" y="0"/>
      <point x="355" y="42"/>
      <point x="435" y="169" type="curve"/>
      <point x="416" y="176" type="line"/>
      <point x="391" y="27" type="line" smooth="yes"/>
      <point x="389" y="15"/>
      <point x="392" y="1"/>
      <point x="412" y="0" type="curve" smooth="yes"/>
      <point x="435" y="-1"/>
      <point x="440" y="16"/>
      <point x="442" y="27" type="curve" smooth="yes"/>
      <point x="481" y="253" type="line" smooth="yes"/>
      <point x="484" y="270"/>
      <point x="480" y="280"/>
      <point x="461" y="280" type="curve"/>
      <point x="441" y="280"/>
      <point x="431" y="266"/>
      <point x="420" y="240" type="curve" smooth="yes"/>
      <point x="367" y="119"/>
      <point x="296" y="46"/>
      <point x="225.0" y="46.0" type="curve" smooth="yes"/>
      <point x="135.0" y="46.0"/>
      <point x="88" y="156"/>
      <point x="114" y="304" type="curve" smooth="yes"/>
      <point x="148" y="503"/>
      <point x="230" y="604"/>
      <point x="357" y="604" type="curve" smooth="yes"/>
      <point x="403" y="604"/>
      <point x="449" y="584"/>
      <point x="494" y="537" type="curve" smooth="yes"/>
      <point x="507" y="524"/>
      <point x="521" y="527"/>
      <point x="529" y="536" type="curve" smooth="yes"/>
      <point x="537" y="545"/>
      <point x="535" y="561"/>
      <point x="526" y="570" type="curve" smooth="yes"/>
      <point x="477" y="621"/>
      <point x="420" y="650"/>
      <point x="358" y="650" type="curve" smooth="yes"/>
      <point x="204" y="650"/>
      <point x="105" y="534"/>
      <point x="64" y="305" type="curve" smooth="yes"/>
      <point x="34" y="130"/>
      <point x="102.0" y="0.0"/>
    </contour>
  </outline>
</glyph>
<glyph name="K" format="2">
  <advance width="468"/>
  <unicode hex="004B"/>
  <outline>
    <contour>
      <point x="397" y="0" type="curve" smooth="yes"/>
      <point x="409.0" y="0.0"/>
      <point x="422.0" y="10.0"/>
      <point x="422" y="23" type="curve" smooth="yes"/>
      <point x="422" y="30"/>
      <point x="418" y="37"/>
      <point x="410" y="48" type="curve" smooth="yes"/>
      <point x="168" y="369" type="line"/>
      <point x="160" y="331" type="line"/>
      <point x="509" y="603" type="line" smooth="yes"/>
      <point x="521" y="613"/>
      <point x="528" y="619"/>
      <point x="528.0" y="631" type="curve" smooth="yes"/>
      <point x="528" y="640"/>
      <point x="521" y="650"/>
      <point x="508" y="650" type="curve" smooth="yes"/>
      <point x="500" y="651"/>
      <point x="489" y="647"/>
      <point x="477" y="637" type="curve" smooth="yes"/>
      <point x="125" y="360" type="line"/>
      <point x="126" y="345" type="line"/>
      <point x="368" y="19" type="line" smooth="yes"/>
      <point x="375" y="9"/>
      <point x="384" y="0"/>
    </contour>
    <contour>
      <point x="59" y="0" type="curve" smooth="yes"/>
      <point x="80" y="0"/>
      <point x="85" y="18"/>
      <point x="87" y="31" type="curve" smooth="yes"/>
      <point x="191" y="619" type="line" smooth="yes"/>
      <point x="194" y="637"/>
      <point x="190" y="650"/>
      <point x="171" y="650" type="curve" smooth="yes"/>
      <point x="151" y="650"/>
      <point x="144" y="639"/>
      <point x="141" y="623" type="curve" smooth="yes"/>
      <point x="36" y="32" type="line" smooth="yes"/>
      <point x="33" y="17"/>
      <point x="41" y="0"/>
    </contour>
  </outline>
</glyph>
<glyph name="N" format="2">
  <advance width="518"/>
  <unicode hex="004E"/>
  <outline>
    <contour>
      <point x="58" y="0" type="curve" smooth="yes"/>
      <point x="80" y="0"/>
      <point x="84" y="16"/>
      <point x="86" y="28" type="curve" smooth="yes"/>
      <point x="182" y="577" type="line"/>
      <point x="167" y="575" type="line"/>
      <point x="370" y="18" type="line" smooth="yes"/>
      <point x="374" y="8"/>
      <point x="383.0" y="0.0"/>
      <point x="397" y="0" type="curve" smooth="yes"/>
      <point x="418.0" y="0.0"/>
      <point x="420" y="15"/>
      <point x="422" y="25" type="curve" smooth="yes"/>
      <point x="526" y="619" type="line" smooth="yes"/>
      <point x="529" y="637"/>
      <point x="526" y="650"/>
      <point x="507" y="650" type="curve" smooth="yes"/>
      <point x="487" y="650"/>
      <point x="480" y="639"/>
      <point x="477" y="623" type="curve" smooth="yes"/>
      <point x="381" y="83" type="line"/>
      <point x="396" y="85" type="line"/>
      <point x="200" y="630" type="line" smooth="yes"/>
      <point x="197" y="639"/>
      <point x="187.0" y="650.0"/>
      <point x="169" y="650" type="curve" smooth="yes"/>
      <point x="148.0" y="650.0"/>
      <point x="143" y="639"/>
      <point x="140" y="623" type="curve" smooth="yes"/>
      <point x="35" y="27" type="line" smooth="yes"/>
      <point x="32" y="12"/>
      <point x="40" y="0"/>
    </contour>
  </outline>
</glyph>
<glyph name="P" format="2">
  <advance width="497"/>
  <unicode hex="0050"/>
  <outline>
    <contour>
      <point x="58" y="0" type="curve" smooth="yes"/>
      <point x="80" y="0"/>
      <point x="83" y="15"/>
      <point x="85" y="25" type="curve" smooth="yes"/>
      <point x="187" y="604" type="line"/>
      <point x="384" y="602"/>
      <point x="461" y="556"/>
      <point x="451" y="481" type="curve" smooth="yes"/>
      <point x="436" y="367"/>
      <point x="289" y="350"/>
      <point x="117" y="350" type="curve"/>
      <point x="110" y="304" type="line"/>
      <point x="318" y="304"/>
      <point x="479" y="321"/>
      <point x="501" y="476" type="curve" smooth="yes"/>
      <point x="518" y="598"/>
      <point x="385" y="650.0"/>
      <point x="170" y="650" type="curve" smooth="yes"/>
      <point x="148" y="650"/>
      <point x="143" y="639"/>
      <point x="140" y="623" type="curve" smooth="yes"/>
      <point x="35" y="27" type="line" smooth="yes"/>
      <point x="32" y="12"/>
      <point x="40" y="0"/>
    </contour>
  </outline>
</glyph>
<glyph name="R" format="2">
  <advance width="497"/>
  <unicode hex="0052"/>
  <outline>
    <contour>
      <point x="58" y="0" type="curve" smooth="yes"/>
      <point x="80" y="0"/>
      <point x="84" y="16"/>
      <point x="87" y="31" type="curve" smooth="yes"/>
      <point x="187" y="604" type="line"/>
      <point x="371" y="602"/>
      <point x="462" y="558"/>
      <point x="451" y="481" type="curve" smooth="yes"/>
      <point x="435" y="368"/>
      <point x="287" y="350"/>
      <point x="116" y="350" type="curve"/>
      <point x="109" y="304" type="line"/>
      <point x="311" y="304"/>
      <point x="479" y="321"/>
      <point x="501" y="476" type="curve" smooth="yes"/>
      <point x="518" y="598"/>
      <point x="388" y="650.0"/>
      <point x="170" y="650" type="curve" smooth="yes"/>
      <point x="148" y="650"/>
      <point x="143" y="639"/>
      <point x="140" y="623" type="curve" smooth="yes"/>
      <point x="36" y="33" type="line" smooth="yes"/>
      <point x="33" y="16"/>
      <point x="40" y="0"/>
    </contour>
    <contour>
      <point x="399" y="0" type="curve" smooth="yes"/>
      <point x="420.0" y="0.0"/>
      <point x="431" y="24"/>
      <point x="408" y="50" type="curve" smooth="yes"/>
      <point x="172" y="321" type="line"/>
      <point x="108" y="321" type="line"/>
      <point x="371" y="18" type="line" smooth="yes"/>
      <point x="382" y="5"/>
      <point x="391" y="0"/>
    </contour>
  </outline>
</glyph>
<glyph name="S" format="2">
  <advance width="425"/>
  <unicode hex="0053"/>
  <outline>
    <contour>
      <point x="160" y="0" type="curve" smooth="yes"/>
      <point x="293" y="0"/>
      <point x="375" y="75"/>
      <point x="375" y="196" type="curve" smooth="yes"/>
      <point x="375" y="259"/>
      <point x="329" y="318"/>
      <point x="258" y="368" type="curve" smooth="yes"/>
      <point x="184" y="419"/>
      <point x="139" y="450"/>
      <point x="139" y="497" type="curve" smooth="yes"/>
      <point x="139" y="563"/>
      <point x="202" y="604"/>
      <point x="303" y="604" type="curve" smooth="yes"/>
      <point x="372" y="604"/>
      <point x="388" y="584"/>
      <point x="394" y="547" type="curve" smooth="yes"/>
      <point x="396" y="534"/>
      <point x="416" y="531"/>
      <point x="428" y="534" type="curve" smooth="yes"/>
      <point x="443" y="538"/>
      <point x="443" y="552"/>
      <point x="441" y="562" type="curve" smooth="yes"/>
      <point x="429" y="626"/>
      <point x="389" y="650"/>
      <point x="304" y="650" type="curve" smooth="yes"/>
      <point x="172" y="650"/>
      <point x="90" y="590"/>
      <point x="90" y="494" type="curve" smooth="yes"/>
      <point x="90" y="424"/>
      <point x="147" y="386"/>
      <point x="218" y="335" type="curve" smooth="yes"/>
      <point x="297" y="279"/>
      <point x="325" y="237"/>
      <point x="325" y="189" type="curve" smooth="yes"/>
      <point x="325" y="101"/>
      <point x="262" y="46"/>
      <point x="160" y="46" type="curve" smooth="yes"/>
      <point x="102" y="46"/>
      <point x="72" y="66"/>
      <point x="64" y="103" type="curve" smooth="yes"/>
      <point x="61" y="116"/>
      <point x="47" y="121"/>
      <point x="35" y="118" type="curve" smooth="yes"/>
      <point x="20" y="114"/>
      <point x="15" y="98"/>
      <point x="17" y="88" type="curve" smooth="yes"/>
      <point x="27" y="30"/>
      <point x="81" y="0"/>
    </contour>
  </outline>
</glyph>
<glyph name="W" format="2">
  <advance width="758"/>
  <unicode hex="0057"/>
  <outline>
    <contour>
      <point x="152" y="0" type="curve" smooth="yes"/>
      <point x="169" y="0"/>
      <point x="178" y="15"/>
      <point x="183" y="26" type="curve" smooth="yes"/>
      <point x="446" y="570" type="line"/>
      <point x="439" y="573" type="line"/>
      <point x="467" y="19" type="line" smooth="yes"/>
      <point x="468" y="6"/>
      <point x="476" y="0"/>
      <point x="493" y="0" type="curve" smooth="yes"/>
      <point x="506" y="0"/>
      <point x="515" y="8"/>
      <point x="523" y="25" type="curve" smooth="yes"/>
      <point x="815" y="618" type="line" smooth="yes"/>
      <point x="825" y="638"/>
      <point x="813" y="650"/>
      <point x="795" y="650" type="curve" smooth="yes"/>
      <point x="780" y="650"/>
      <point x="771" y="641"/>
      <point x="763" y="625" type="curve" smooth="yes"/>
      <point x="503" y="89" type="line"/>
      <point x="510" y="86" type="line"/>
      <point x="482" y="626" type="line" smooth="yes"/>
      <point x="481" y="636"/>
      <point x="476" y="650"/>
      <point x="452" y="650" type="curve" smooth="yes"/>
      <point x="436" y="650"/>
      <point x="425" y="633"/>
      <point x="422" y="626" type="curve" smooth="yes"/>
      <point x="161" y="85" type="line"/>
      <point x="168" y="82" type="line"/>
      <point x="141" y="626" type="line" smooth="yes"/>
      <point x="141" y="636"/>
      <point x="136" y="650"/>
      <point x="114" y="650" type="curve"/>
      <point x="96" y="650"/>
      <point x="90" y="639"/>
      <point x="91" y="624" type="curve" smooth="yes"/>
      <point x="124" y="28" type="line" smooth="yes"/>
      <point x="125" y="12"/>
      <point x="135" y="0"/>
    </contour>
  </outline>
</glyph>
<glyph name="X" format="2">
  <advance width="457"/>
  <unicode hex="0058"/>
  <outline>
    <contour>
      <point x="12" y="6" type="curve" smooth="yes"/>
      <point x="23" y="-3"/>
      <point x="42" y="-4"/>
      <point x="53" y="11" type="curve" smooth="yes"/>
      <point x="487" y="609" type="line" smooth="yes"/>
      <point x="498" y="624"/>
      <point x="496" y="638"/>
      <point x="487" y="645" type="curve" smooth="yes"/>
      <point x="477" y="653"/>
      <point x="458" y="652"/>
      <point x="447" y="637" type="curve" smooth="yes"/>
      <point x="10" y="38" type="line" smooth="yes"/>
      <point x="1" y="26"/>
      <point x="3" y="13"/>
    </contour>
    <contour>
      <point x="378" y="3" type="curve" smooth="yes"/>
      <point x="388" y="8"/>
      <point x="392" y="20"/>
      <point x="386" y="35" type="curve" smooth="yes"/>
      <point x="162" y="631" type="line" smooth="yes"/>
      <point x="155" y="650"/>
      <point x="138" y="654"/>
      <point x="126" y="649" type="curve" smooth="yes"/>
      <point x="114" y="645"/>
      <point x="109" y="631"/>
      <point x="116" y="613" type="curve" smooth="yes"/>
      <point x="338" y="19" type="line" smooth="yes"/>
      <point x="345" y="0"/>
      <point x="365" y="-3"/>
    </contour>
  </outline>
</glyph>
<glyph name="bracketleft" format="2">
  <advance width="325"/>
  <unicode hex="005B"/>
  <outline>
    <contour>
      <point x="4" y="-300" type="curve" smooth="yes"/>
      <point x="149" y="-300" type="line" smooth="yes"/>
      <point x="166" y="-300"/>
      <point x="175" y="-288"/>
      <point x="175" y="-277" type="curve" smooth="yes"/>
      <point x="175" y="-266"/>
      <point x="167" y="-255"/>
      <point x="149" y="-255" type="curve" smooth="yes"/>
      <point x="36" y="-255" type="line"/>
      <point x="188" y="605" type="line"/>
      <point x="308" y="605" type="line" smooth="yes"/>
      <point x="325" y="605"/>
      <point x="334" y="616"/>
      <point x="335" y="627" type="curve" smooth="yes"/>
      <point x="336" y="638"/>
      <point x="327" y="650"/>
      <point x="308" y="650" type="curve" smooth="yes"/>
      <point x="170" y="650" type="line" smooth="yes"/>
      <point x="151" y="650"/>
      <point x="143" y="639"/>
      <point x="140" y="623" type="curve" smooth="yes"/>
      <point x="-18" y="-273" type="line" smooth="yes"/>
      <point x="-21" y="-287"/>
      <point x="-14" y="-300"/>
    </contour>
  </outline>
</glyph>
<glyph name="asciicircum" format="2">
  <advance width="456"/>
  <unicode hex="005E"/>
  <outline>
    <contour>
      <point x="161" y="294" type="curve" smooth="yes"/>
      <point x="298" y="409" type="line"/>
      <point x="256" y="413" type="line"/>
      <point x="354" y="296" type="line" smooth="yes"/>
      <point x="365" y="283"/>
      <point x="380" y="285"/>
      <point x="389" y="293" type="curve" smooth="yes"/>
      <point x="399" y="302"/>
      <point x="402" y="317"/>
      <point x="392" y="329" type="curve" smooth="yes"/>
      <point x="299" y="439" type="line" smooth="yes"/>
      <point x="291" y="449"/>
      <point x="274" y="451"/>
      <point x="260" y="439" type="curve" smooth="yes"/>
      <point x="127" y="328" type="line" smooth="yes"/>
      <point x="115" y="318"/>
      <point x="116" y="304"/>
      <point x="124" y="295" type="curve" smooth="yes"/>
      <point x="133" y="286"/>
      <point x="145" y="281"/>
    </contour>
  </outline>
</glyph>
<glyph name="b" format="2">
  <advance width="401"/>
  <unicode hex="0062"/>
  <outline>
    <contour>
      <point x="153.0" y="-4.0" type="curve" smooth="yes"/>
      <point x="244" y="-4"/>
      <point x="318" y="82"/>
      <point x="318" y="198" type="curve" smooth="yes"/>
      <point x="318" y="233"/>
      <point x="311" y="269"/>
      <point x="296" y="323" type="curve"/>
      <point x="274" y="303" type="line"/>
      <point x="373" y="286" type="line" smooth="yes"/>
      <point x="396" y="282"/>
      <point x="415" y="287"/>
      <point x="415" y="308" type="curve" smooth="yes"/>
      <point x="415" y="317"/>
      <point x="409" y="329"/>
      <point x="391" y="332" type="curve" smooth="yes"/>
      <point x="277" y="350" type="line"/>
      <point x="246" y="357"/>
      <point x="248" y="330"/>
      <point x="252" y="319" type="curve" smooth="yes"/>
      <point x="260" y="294"/>
      <point x="272" y="260"/>
      <point x="272" y="208" type="curve" smooth="yes"/>
      <point x="272" y="115"/>
      <point x="221" y="42"/>
      <point x="161.0" y="42.0" type="curve" smooth="yes"/>
      <point x="111" y="42"/>
      <point x="87" y="90"/>
      <point x="97" y="148" type="curve" smooth="yes"/>
      <point x="181" y="623" type="line" smooth="yes"/>
      <point x="184" y="642"/>
      <point x="174" y="650"/>
      <point x="161" y="650" type="curve" smooth="yes"/>
      <point x="148" y="650"/>
      <point x="133" y="640"/>
      <point x="130" y="623" type="curve" smooth="yes"/>
      <point x="46" y="148" type="line" smooth="yes"/>
      <point x="31" y="61"/>
      <point x="73" y="-4"/>
    </contour>
  </outline>
</glyph>
<glyph name="e" format="2">
  <advance width="311"/>
  <unicode hex="0065"/>
  <outline>
    <contour>
      <point x="110" y="-4" type="curve" smooth="yes"/>
      <point x="153" y="-4"/>
      <point x="200" y="22"/>
      <point x="232" y="64" type="curve" smooth="yes"/>
      <point x="254" y="93"/>
      <point x="249" y="106"/>
      <point x="239" y="113" type="curve" smooth="yes"/>
      <point x="228" y="121"/>
      <point x="213" y="119"/>
      <point x="194" y="94" type="curve" smooth="yes"/>
      <point x="167" y="62"/>
      <point x="136" y="42"/>
      <point x="111" y="42" type="curve" smooth="yes"/>
      <point x="88" y="42"/>
      <point x="74" y="65"/>
      <point x="74" y="98" type="curve" smooth="yes"/>
      <point x="74" y="207"/>
      <point x="134" y="308"/>
      <point x="201" y="308" type="curve" smooth="yes"/>
      <point x="220" y="308"/>
      <point x="230" y="298"/>
      <point x="230" y="288" type="curve" smooth="yes"/>
      <point x="230" y="267"/>
      <point x="187" y="235"/>
      <point x="138" y="206" type="curve" smooth="yes"/>
      <point x="113" y="192"/>
      <point x="85" y="177"/>
      <point x="63" y="165" type="curve"/>
      <point x="51" y="108" type="line"/>
      <point x="66" y="115"/>
      <point x="128" y="147"/>
      <point x="166" y="168" type="curve" smooth="yes"/>
      <point x="206" y="191"/>
      <point x="281" y="230"/>
      <point x="281" y="291" type="curve" smooth="yes"/>
      <point x="281" y="333"/>
      <point x="252" y="354"/>
      <point x="207" y="354" type="curve" smooth="yes"/>
      <point x="110" y="354"/>
      <point x="23" y="237"/>
      <point x="23" y="107" type="curve" smooth="yes"/>
      <point x="23" y="38"/>
      <point x="56" y="-4"/>
    </contour>
  </outline>
</glyph>
<glyph name="g" format="2">
  <advance width="355"/>
  <unicode hex="0067"/>
  <outline>
    <contour>
      <point x="109" y="-4" type="curve" smooth="yes"/>
      <point x="162" y="-4"/>
      <point x="221" y="49"/>
      <point x="261" y="158" type="curve"/>
      <point x="273" y="270" type="line"/>
      <point x="220" y="129"/>
      <point x="163" y="42"/>
      <point x="117" y="42" type="curve" smooth="yes"/>
      <point x="84" y="42"/>
      <point x="66" y="82"/>
      <point x="77" y="147" type="curve" smooth="yes"/>
      <point x="94" y="244"/>
      <point x="164" y="304"/>
      <point x="260" y="304" type="curve" smooth="yes"/>
      <point x="301" y="304" type="line"/>
      <point x="309" y="350" type="line"/>
      <point x="257" y="350" type="line" smooth="yes"/>
      <point x="137" y="350"/>
      <point x="49" y="272"/>
      <point x="26" y="147" type="curve" smooth="yes"/>
      <point x="9" y="54"/>
      <point x="44" y="-4"/>
    </contour>
    <contour>
      <point x="91" y="-300" type="curve" smooth="yes"/>
      <point x="180" y="-300"/>
      <point x="231" y="-244"/>
      <point x="256" y="-107" type="curve" smooth="yes"/>
      <point x="332" y="322" type="line" smooth="yes"/>
      <point x="335" y="340"/>
      <point x="328" y="350"/>
      <point x="308" y="350" type="curve"/>
      <point x="286" y="350" type="line"/>
      <point x="207" y="-103" type="line" smooth="yes"/>
      <point x="190" y="-207"/>
      <point x="157" y="-254"/>
      <point x="93" y="-254" type="curve" smooth="yes"/>
      <point x="64" y="-254"/>
      <point x="34" y="-246"/>
      <point x="15" y="-232" type="curve" smooth="yes"/>
      <point x="4" y="-225"/>
      <point x="-10" y="-225"/>
      <point x="-17" y="-233" type="curve" smooth="yes"/>
      <point x="-26" y="-244"/>
      <point x="-25" y="-259"/>
      <point x="-15" y="-267" type="curve" smooth="yes"/>
      <point x="9" y="-287"/>
      <point x="49" y="-300"/>
    </contour>
  </outline>
</glyph>
<glyph name="i" format="2">
  <advance width="161"/>
  <unicode hex="0069"/>
  <outline>
    <contour>
      <point x="46" y="0" type="curve" smooth="yes"/>
      <point x="72" y="0"/>
      <point x="74" y="18"/>
      <point x="75" y="23" type="curve" smooth="yes"/>
      <point x="128" y="323" type="line" smooth="yes"/>
      <point x="130" y="340"/>
      <point x="127" y="350"/>
      <point x="110" y="350" type="curve"/>
      <point x="90" y="350"/>
      <point x="81" y="341"/>
      <point x="77" y="323" type="curve" smooth="yes"/>
      <point x="24" y="23" type="line" smooth="yes"/>
      <point x="23" y="15"/>
      <point x="24" y="0"/>
    </contour>
    <contour>
      <point x="127" y="438" type="curve" smooth="yes"/>
      <point x="144" y="438"/>
      <point x="158" y="452"/>
      <point x="158" y="468" type="curve" smooth="yes"/>
      <point x="158" y="485"/>
      <point x="143" y="497"/>
      <point x="127" y="497" type="curve" smooth="yes"/>
      <point x="109" y="497"/>
      <point x="97" y="483"/>
      <point x="97" y="468" type="curve" smooth="yes"/>
      <point x="97" y="452"/>
      <point x="110" y="438"/>
    </contour>
  </outline>
</glyph>
<glyph name="j" format="2">
  <advance width="161"/>
  <unicode hex="006A"/>
  <outline>
    <contour>
      <point x="-113" y="-300" type="curve" smooth="yes"/>
      <point x="-24" y="-300"/>
      <point x="28" y="-244"/>
      <point x="52" y="-107" type="curve" smooth="yes"/>
      <point x="128" y="323" type="line" smooth="yes"/>
      <point x="131" y="340"/>
      <point x="127" y="350"/>
      <point x="110" y="350" type="curve"/>
      <point x="90" y="350"/>
      <point x="80" y="341"/>
      <point x="77" y="323" type="curve" smooth="yes"/>
      <point x="2" y="-103" type="line" smooth="yes"/>
      <point x="-16" y="-207"/>
      <point x="-48" y="-254"/>
      <point x="-112" y="-254" type="curve" smooth="yes"/>
      <point x="-141" y="-254"/>
      <point x="-170" y="-246"/>
      <point x="-189" y="-232" type="curve" smooth="yes"/>
      <point x="-200" y="-225"/>
      <point x="-214" y="-225"/>
      <point x="-221" y="-233" type="curve" smooth="yes"/>
      <point x="-230" y="-244"/>
      <point x="-229" y="-259"/>
      <point x="-219" y="-267" type="curve" smooth="yes"/>
      <point x="-195" y="-287"/>
      <point x="-155" y="-300"/>
    </contour>
    <contour>
      <point x="127" y="438" type="curve" smooth="yes"/>
      <point x="144" y="438"/>
      <point x="158" y="452"/>
      <point x="158" y="468" type="curve" smooth="yes"/>
      <point x="158" y="485"/>
      <point x="143" y="497"/>
      <point x="127" y="497" type="curve" smooth="yes"/>
      <point x="109" y="497"/>
      <point x="97" y="483"/>
      <point x="97" y="468" type="curve" smooth="yes"/>
      <point x="97" y="452"/>
      <point x="110" y="438"/>
    </contour>
  </outline>
</glyph>
<glyph name="l" format="2">
  <advance width="160"/>
  <unicode hex="006C"/>
  <outline>
    <contour>
      <point x="49" y="0" type="curve" smooth="yes"/>
      <point x="60" y="0"/>
      <point x="71" y="7"/>
      <point x="74" y="22" type="curve" smooth="yes"/>
      <point x="180" y="624" type="line" smooth="yes"/>
      <point x="183" y="640"/>
      <point x="170" y="650"/>
      <point x="156" y="650" type="curve" smooth="yes"/>
      <point x="145" y="650"/>
      <point x="134" y="644"/>
      <point x="131" y="629" type="curve" smooth="yes"/>
      <point x="25" y="27" type="line" smooth="yes"/>
      <point x="22" y="9"/>
      <point x="35" y="0"/>
    </contour>
  </outline>
</glyph>
<glyph name="p" format="2">
  <advance width="430"/>
  <unicode hex="0070"/>
  <outline>
    <contour>
      <point x="261" y="0" type="curve" smooth="yes"/>
      <point x="269" y="0"/>
      <point x="276" y="2"/>
      <point x="285" y="9" type="curve" smooth="yes"/>
      <point x="366" y="76" type="line" smooth="yes"/>
      <point x="383" y="90"/>
      <point x="391" y="101"/>
      <point x="391.0" y="113" type="curve" smooth="yes"/>
      <point x="391" y="125"/>
      <point x="384" y="132"/>
      <point x="372" y="132.0" type="curve" smooth="yes"/>
      <point x="361" y="132"/>
      <point x="349" y="126"/>
      <point x="334" y="114" type="curve" smooth="yes"/>
      <point x="301" y="86" type="line"/>
      <point x="326" y="230" type="line" smooth="yes"/>
      <point x="337" y="294"/>
      <point x="305" y="354"/>
      <point x="233" y="354" type="curve" smooth="yes"/>
      <point x="178" y="354"/>
      <point x="137" y="319"/>
      <point x="91" y="246" type="curve"/>
      <point x="81" y="174" type="line"/>
      <point x="143" y="270"/>
      <point x="188" y="308"/>
      <point x="230" y="308" type="curve" smooth="yes"/>
      <point x="274" y="308"/>
      <point x="282" y="267"/>
      <point x="276" y="233" type="curve" smooth="yes"/>
      <point x="240" y="29" type="line" smooth="yes"/>
      <point x="238" y="17"/>
      <point x="239" y="0"/>
    </contour>
    <contour>
      <point x="-17" y="-300" type="curve" smooth="yes"/>
      <point x="-5" y="-300"/>
      <point x="9" y="-292"/>
      <point x="12" y="-277" type="curve" smooth="yes"/>
      <point x="119" y="327" type="line" smooth="yes"/>
      <point x="122" y="342"/>
      <point x="110" y="350"/>
      <point x="97" y="350" type="curve" smooth="yes"/>
      <point x="85" y="350"/>
      <point x="71" y="342"/>
      <point x="68" y="327" type="curve" smooth="yes"/>
      <point x="-39" y="-276" type="line" smooth="yes"/>
      <point x="-42" y="-292"/>
      <point x="-30" y="-300"/>
    </contour>
  </outline>
</glyph>
<glyph name="q" format="2">
  <advance width="355"/>
  <unicode hex="0071"/>
  <outline>
    <contour>
      <point x="109" y="-4" type="curve" smooth="yes"/>
      <point x="162" y="-4"/>
      <point x="221" y="49"/>
      <point x="261" y="158" type="curve"/>
      <point x="273" y="270" type="line"/>
      <point x="220" y="129"/>
      <point x="163" y="42"/>
      <point x="117" y="42" type="curve" smooth="yes"/>
      <point x="84" y="42"/>
      <point x="66" y="82"/>
      <point x="77" y="147" type="curve" smooth="yes"/>
      <point x="94" y="244"/>
      <point x="164" y="304"/>
      <point x="260" y="304" type="curve" smooth="yes"/>
      <point x="301" y="304" type="line"/>
      <point x="309" y="350" type="line"/>
      <point x="257" y="350" type="line" smooth="yes"/>
      <point x="137" y="350"/>
      <point x="49" y="272"/>
      <point x="26" y="147" type="curve" smooth="yes"/>
      <point x="9" y="54"/>
      <point x="44" y="-4"/>
    </contour>
    <contour>
      <point x="198" y="-300" type="curve" smooth="yes"/>
      <point x="206" y="-300"/>
      <point x="213" y="-298"/>
      <point x="222" y="-291" type="curve" smooth="yes"/>
      <point x="303" y="-224" type="line" smooth="yes"/>
      <point x="320" y="-210"/>
      <point x="328" y="-199"/>
      <point x="328" y="-187" type="curve" smooth="yes"/>
      <point x="328" y="-175"/>
      <point x="321" y="-168"/>
      <point x="309" y="-168" type="curve" smooth="yes"/>
      <point x="298" y="-168"/>
      <point x="286" y="-174"/>
      <point x="271" y="-186" type="curve" smooth="yes"/>
      <point x="238" y="-214" type="line"/>
      <point x="333" y="327" type="line" smooth="yes"/>
      <point x="334" y="335"/>
      <point x="333" y="350"/>
      <point x="311" y="350" type="curve" smooth="yes"/>
      <point x="286" y="350" type="line"/>
      <point x="177" y="-271" type="line" smooth="yes"/>
      <point x="175" y="-283"/>
      <point x="176" y="-300"/>
    </contour>
  </outline>
</glyph>
<glyph name="v" format="2">
  <advance width="433"/>
  <unicode hex="0076"/>
  <outline>
    <contour>
      <point x="76" y="-4" type="curve" smooth="yes"/>
      <point x="152" y="-4"/>
      <point x="242" y="94"/>
      <point x="345" y="288" type="curve" smooth="yes"/>
      <point x="349" y="296" type="line"/>
      <point x="405" y="284" type="line" smooth="yes"/>
      <point x="426" y="279"/>
      <point x="447.0" y="287.0"/>
      <point x="447.0" y="310" type="curve" smooth="yes"/>
      <point x="447" y="321"/>
      <point x="441.0" y="331.0"/>
      <point x="423" y="334" type="curve" smooth="yes"/>
      <point x="358" y="347"/>
      <point x="342" y="350"/>
      <point x="338" y="350" type="curve" smooth="yes"/>
      <point x="320" y="350"/>
      <point x="314" y="337"/>
      <point x="302" y="315" type="curve" smooth="yes"/>
      <point x="210" y="137"/>
      <point x="139" y="42"/>
      <point x="90" y="42" type="curve" smooth="yes"/>
      <point x="76" y="42"/>
      <point x="72" y="62"/>
      <point x="79" y="102" type="curve" smooth="yes"/>
      <point x="118" y="320" type="line" smooth="yes"/>
      <point x="122" y="340"/>
      <point x="110" y="350"/>
      <point x="97" y="350" type="curve" smooth="yes"/>
      <point x="85" y="350"/>
      <point x="70" y="341"/>
      <point x="67" y="323" type="curve" smooth="yes"/>
      <point x="28" y="102" type="line" smooth="yes"/>
      <point x="19" y="50"/>
      <point x="23" y="-4"/>
    </contour>
  </outline>
</glyph>
<glyph name="x" format="2">
  <advance width="483"/>
  <unicode hex="0078"/>
  <outline>
    <contour>
      <point x="105" y="-4" type="curve" smooth="yes"/>
      <point x="190" y="-4"/>
      <point x="252" y="107"/>
      <point x="253" y="255" type="curve" smooth="yes"/>
      <point x="253" y="330"/>
      <point x="219" y="354"/>
      <point x="182" y="354" type="curve" smooth="yes"/>
      <point x="132" y="354"/>
      <point x="90" y="322"/>
      <point x="59" y="260" type="curve" smooth="yes"/>
      <point x="55" y="251"/>
      <point x="60" y="239"/>
      <point x="71" y="233" type="curve" smooth="yes"/>
      <point x="84" y="226"/>
      <point x="98" y="227"/>
      <point x="103" y="237" type="curve" smooth="yes"/>
      <point x="126" y="281"/>
      <point x="151" y="308"/>
      <point x="178" y="308" type="curve" smooth="yes"/>
      <point x="206" y="308"/>
      <point x="214" y="273"/>
      <point x="213" y="245" type="curve" smooth="yes"/>
      <point x="210" y="131"/>
      <point x="160" y="42"/>
      <point x="105" y="42" type="curve" smooth="yes"/>
      <point x="83" y="42"/>
      <point x="63" y="46"/>
      <point x="45" y="53" type="curve" smooth="yes"/>
      <point x="28" y="60"/>
      <point x="15" y="59"/>
      <point x="9" y="44" type="curve" smooth="yes"/>
      <point x="2" y="29"/>
      <point x="8" y="15"/>
      <point x="24" y="9" type="curve" smooth="yes"/>
      <point x="46" y="0"/>
      <point x="73" y="-4"/>
    </contour>
    <contour>
      <point x="279" y="-4" type="curve" smooth="yes"/>
      <point x="328" y="-4"/>
      <point x="384" y="48"/>
      <point x="426" y="131" type="curve" smooth="yes"/>
      <point x="430" y="140"/>
      <point x="425" y="152"/>
      <point x="414" y="158" type="curve" smooth="yes"/>
      <point x="401" y="165"/>
      <point x="387" y="164"/>
      <point x="382" y="154" type="curve" smooth="yes"/>
      <point x="348" y="87"/>
      <point x="310" y="42"/>
      <point x="283" y="42" type="curve" smooth="yes"/>
      <point x="255" y="42"/>
      <point x="247" y="77"/>
      <point x="248" y="105" type="curve" smooth="yes"/>
      <point x="251" y="219"/>
      <point x="301" y="308"/>
      <point x="356" y="308" type="curve" smooth="yes"/>
      <point x="378" y="308"/>
      <point x="398" y="304"/>
      <point x="416" y="297" type="curve" smooth="yes"/>
      <point x="433" y="290"/>
      <point x="446" y="291"/>
      <point x="452" y="306" type="curve" smooth="yes"/>
      <point x="459" y="321"/>
      <point x="453" y="335"/>
      <point x="437" y="341" type="curve" smooth="yes"/>
      <point x="415" y="350"/>
      <point x="388" y="354"/>
      <point x="356" y="354" type="curve" smooth="yes"/>
      <point x="271" y="354"/>
      <point x="207" y="243"/>
      <point x="207" y="95" type="curve" smooth="yes"/>
      <point x="207" y="20"/>
      <point x="242" y="-4"/>
    </contour>
  </outline>
</glyph>
<glyph name="z" format="2">
  <advance width="348"/>
  <unicode hex="007A"/>
  <outline>
    <contour>
      <point x="27" y="0" type="curve" smooth="yes"/>
      <point x="246" y="0" type="line" smooth="yes"/>
      <point x="266" y="0"/>
      <point x="272" y="13"/>
      <point x="272" y="25" type="curve" smooth="yes"/>
      <point x="272" y="37"/>
      <point x="266" y="46"/>
      <point x="246" y="46" type="curve" smooth="yes"/>
      <point x="56" y="46" type="line"/>
      <point x="63" y="28" type="line"/>
      <point x="306" y="308" type="line" smooth="yes"/>
      <point x="322" y="326"/>
      <point x="317.0" y="350.0"/>
      <point x="291" y="350" type="curve" smooth="yes"/>
      <point x="84" y="350" type="line" smooth="yes"/>
      <point x="64" y="350"/>
      <point x="58" y="337"/>
      <point x="58" y="325" type="curve" smooth="yes"/>
      <point x="58" y="313"/>
      <point x="64" y="304"/>
      <point x="84" y="304" type="curve" smooth="yes"/>
      <point x="263" y="304" type="line"/>
      <point x="256" y="322" type="line"/>
      <point x="13" y="44" type="line" smooth="yes"/>
      <point x="-2" y="27"/>
      <point x="6" y="0"/>
    </contour>
  </outline>
</glyph>
<glyph name="braceright" format="2">
  <advance width="379"/>
  <unicode hex="007D"/>
  <outline>
    <contour>
      <point x="48" y="-300" type="curve" smooth="yes"/>
      <point x="87" y="-288"/>
      <point x="162" y="-255"/>
      <point x="187" y="-205" type="curve" smooth="yes"/>
      <point x="216" y="-147"/>
      <point x="184" y="10"/>
      <point x="193" y="59" type="curve" smooth="yes"/>
      <point x="199" y="88"/>
      <point x="217" y="112"/>
      <point x="249" y="136" type="curve" smooth="yes"/>
      <point x="266" y="148"/>
      <point x="281" y="155"/>
      <point x="281" y="171" type="curve" smooth="yes"/>
      <point x="282" y="188"/>
      <point x="269" y="198"/>
      <point x="256" y="214" type="curve" smooth="yes"/>
      <point x="231" y="247"/>
      <point x="220" y="276"/>
      <point x="221" y="305" type="curve" smooth="yes"/>
      <point x="226" y="362"/>
      <point x="277" y="439"/>
      <point x="267" y="505" type="curve" smooth="yes"/>
      <point x="258" y="562"/>
      <point x="204" y="612"/>
      <point x="167" y="639" type="curve" smooth="yes"/>
      <point x="151" y="651"/>
      <point x="133" y="653"/>
      <point x="123" y="643" type="curve" smooth="yes"/>
      <point x="113" y="634"/>
      <point x="119" y="613"/>
      <point x="133" y="603" type="curve" smooth="yes"/>
      <point x="173" y="576"/>
      <point x="209" y="557"/>
      <point x="216" y="503" type="curve" smooth="yes"/>
      <point x="225" y="440"/>
      <point x="172" y="367"/>
      <point x="168" y="313" type="curve" smooth="yes"/>
      <point x="165" y="269"/>
      <point x="180" y="232"/>
      <point x="221" y="179" type="curve"/>
      <point x="168" y="140"/>
      <point x="148" y="109"/>
      <point x="141" y="65" type="curve" smooth="yes"/>
      <point x="133" y="13"/>
      <point x="169" y="-134"/>
      <point x="140" y="-188" type="curve" smooth="yes"/>
      <point x="121" y="-224"/>
      <point x="69" y="-239"/>
      <point x="25" y="-250" type="curve" smooth="yes"/>
      <point x="8" y="-255"/>
      <point x="-6" y="-270"/>
      <point x="-3" y="-284" type="curve" smooth="yes"/>
      <point x="0" y="-299"/>
      <point x="26" y="-307"/>
    </contour>
  </outline>
</glyph>
<glyph name="exclamdown" format="2">
  <advance width="232"/>
  <unicode hex="00A1"/>
  <outline>
    <contour>
      <point x="79" y="-1" type="curve" smooth="yes"/>
      <point x="92" y="-1"/>
      <point x="107" y="6"/>
      <point x="110" y="20" type="curve" smooth="yes"/>
      <point x="186" y="447" type="line" smooth="yes"/>
      <point x="189" y="464"/>
      <point x="177" y="473"/>
      <point x="165" y="474" type="curve" smooth="yes"/>
      <point x="153" y="475"/>
      <point x="138" y="466"/>
      <point x="135" y="447" type="curve" smooth="yes"/>
      <point x="59" y="20" type="line" smooth="yes"/>
      <point x="57" y="6"/>
      <point x="67" y="-1"/>
    </contour>
    <contour>
      <point x="188" y="570" type="curve" smooth="yes"/>
      <point x="211" y="570"/>
      <point x="228" y="587"/>
      <point x="228" y="609" type="curve" smooth="yes"/>
      <point x="228" y="632"/>
      <point x="211" y="650"/>
      <point x="188" y="650" type="curve" smooth="yes"/>
      <point x="165" y="650"/>
      <point x="148" y="632"/>
      <point x="148" y="609" type="curve" smooth="yes"/>
      <point x="148" y="587"/>
      <point x="165" y="570"/>
    </contour>
  </outline>
</glyph>
<glyph name="brokenbar" format="2">
  <advance width="201"/>
  <unicode hex="00A6"/>
  <outline>
    <contour>
      <point x="115" y="135" type="line" smooth="yes"/>
      <point x="118" y="152"/>
      <point x="107" y="162"/>
      <point x="95" y="162" type="curve" smooth="yes"/>
      <point x="82" y="162"/>
      <point x="67" y="152"/>
      <point x="64" y="135" type="curve" smooth="yes"/>
      <point x="-8" y="-273" type="line" smooth="yes"/>
      <point x="-11" y="-288"/>
      <point x="-2" y="-300"/>
      <point x="16" y="-300" type="curve" smooth="yes"/>
      <point x="38" y="-300"/>
      <point x="41" y="-285"/>
      <point x="43" y="-275" type="curve" smooth="yes"/>
    </contour>
    <contour>
      <point x="209" y="668" type="line" smooth="yes"/>
      <point x="213" y="690"/>
      <point x="202" y="700"/>
      <point x="189" y="700" type="curve" smooth="yes"/>
      <point x="177" y="700"/>
      <point x="162" y="690"/>
      <point x="159" y="672" type="curve" smooth="yes"/>
      <point x="87" y="266" type="line" smooth="yes"/>
      <point x="84" y="249"/>
      <point x="95" y="238"/>
      <point x="108" y="239" type="curve" smooth="yes"/>
      <point x="121" y="239"/>
      <point x="135" y="249"/>
      <point x="138" y="266" type="curve" smooth="yes"/>
    </contour>
  </outline>
</glyph>
<glyph name="degree" format="2">
  <advance width="319"/>
  <unicode hex="00B0"/>
  <outline>
    <contour>
      <point x="205" y="404" type="curve" smooth="yes"/>
      <point x="271" y="404"/>
      <point x="305" y="469"/>
      <point x="312" y="530" type="curve" smooth="yes"/>
      <point x="318" y="593"/>
      <point x="293" y="654"/>
      <point x="231" y="654" type="curve" smooth="yes"/>
      <point x="179" y="654"/>
      <point x="133" y="612"/>
      <point x="124" y="530" type="curve" smooth="yes"/>
      <point x="118" y="467"/>
      <point x="143" y="404"/>
    </contour>
    <contour>
      <point x="212" y="450" type="curve" smooth="yes"/>
      <point x="177" y="450"/>
      <point x="166" y="487"/>
      <point x="170" y="528" type="curve" smooth="yes"/>
      <point x="176" y="583"/>
      <point x="198" y="608"/>
      <point x="228" y="608" type="curve" smooth="yes"/>
      <point x="265" y="608"/>
      <point x="269" y="559"/>
      <point x="266" y="531" type="curve" smooth="yes"/>
      <point x="260" y="478"/>
      <point x="236" y="450"/>
    </contour>
  </outline>
</glyph>
<glyph name="plusminus" format="2">
  <advance width="426"/>
  <unicode hex="00B1"/>
  <outline>
    <contour>
      <point x="219" y="186" type="curve" smooth="yes"/>
      <point x="229" y="186"/>
      <point x="239" y="192"/>
      <point x="243" y="208" type="curve" smooth="yes"/>
      <point x="276" y="340" type="line" smooth="yes"/>
      <point x="281" y="358"/>
      <point x="269" y="371"/>
      <point x="256" y="371" type="curve"/>
      <point x="247" y="371"/>
      <point x="236" y="365"/>
      <point x="232" y="350" type="curve" smooth="yes"/>
      <point x="200" y="218" type="line" smooth="yes"/>
      <point x="195" y="199"/>
      <point x="207" y="186"/>
    </contour>
    <contour>
      <point x="124" y="257" type="curve" smooth="yes"/>
      <point x="351" y="257" type="line" smooth="yes"/>
      <point x="369" y="257"/>
      <point x="378" y="269"/>
      <point x="378" y="280" type="curve" smooth="yes"/>
      <point x="378" y="291"/>
      <point x="369" y="302"/>
      <point x="351" y="302" type="curve" smooth="yes"/>
      <point x="124" y="302" type="line" smooth="yes"/>
      <point x="106" y="302"/>
      <point x="97" y="291"/>
      <point x="97" y="280" type="curve" smooth="yes"/>
      <point x="97" y="268"/>
      <point x="106" y="257"/>
    </contour>
    <contour>
      <point x="93" y="129" type="curve" smooth="yes"/>
      <point x="320" y="129" type="line" smooth="yes"/>
      <point x="338" y="129"/>
      <point x="347" y="141"/>
      <point x="347" y="152" type="curve" smooth="yes"/>
      <point x="347" y="163"/>
      <point x="338" y="174"/>
      <point x="320" y="174" type="curve" smooth="yes"/>
      <point x="93" y="174" type="line" smooth="yes"/>
      <point x="75" y="174"/>
      <point x="66" y="163"/>
      <point x="66" y="152" type="curve" smooth="yes"/>
      <point x="66" y="140"/>
      <point x="75" y="129"/>
    </contour>
  </outline>
</glyph>
<glyph name="periodcentered" format="2">
  <advance width="210"/>
  <unicode hex="00B7"/>
  <outline>
    <contour>
      <point x="125" y="193" type="curve" smooth="yes"/>
      <point x="148" y="193"/>
      <point x="165" y="211"/>
      <point x="165" y="234" type="curve" smooth="yes"/>
      <point x="165" y="256"/>
      <point x="148" y="273"/>
      <point x="125" y="273" type="curve" smooth="yes"/>
      <point x="102" y="273"/>
      <point x="85" y="256"/>
      <point x="85" y="234" type="curve" smooth="yes"/>
      <point x="85" y="211"/>
      <point x="102" y="193"/>
    </contour>
  </outline>
</glyph>
<glyph name="questiondown" format="2">
  <advance width="474"/>
  <unicode hex="00BF"/>
  <outline>
    <contour>
      <point x="212" y="-1" type="curve" smooth="yes"/>
      <point x="322" y="-1"/>
      <point x="384" y="59"/>
      <point x="401" y="154" type="curve" smooth="yes"/>
      <point x="405" y="177"/>
      <point x="398" y="192"/>
      <point x="381" y="192" type="curve" smooth="yes"/>
      <point x="366" y="192"/>
      <point x="355" y="181"/>
      <point x="352" y="164" type="curve" smooth="yes"/>
      <point x="342" y="107"/>
      <point x="304" y="45"/>
      <point x="219" y="45" type="curve" smooth="yes"/>
      <point x="152" y="45"/>
      <point x="110" y="86"/>
      <point x="110" y="152" type="curve" smooth="yes"/>
      <point x="110" y="260"/>
      <point x="185" y="327"/>
      <point x="306" y="327" type="curve" smooth="yes"/>
      <point x="317" y="327"/>
      <point x="329" y="335"/>
      <point x="331" y="346" type="curve" smooth="yes"/>
      <point x="349" y="447" type="line" smooth="yes"/>
      <point x="351" y="461"/>
      <point x="341" y="474"/>
      <point x="326" y="474" type="curve" smooth="yes"/>
      <point x="316" y="474"/>
      <point x="302" y="469"/>
      <point x="298" y="447" type="curve" smooth="yes"/>
      <point x="285" y="376" type="line"/>
      <point x="146" y="367"/>
      <point x="60" y="278"/>
      <point x="60" y="144" type="curve" smooth="yes"/>
      <point x="60" y="54"/>
      <point x="118" y="-1"/>
    </contour>
    <contour>
      <point x="350" y="570" type="curve" smooth="yes"/>
      <point x="373" y="570"/>
      <point x="390" y="587"/>
      <point x="390" y="609" type="curve" smooth="yes"/>
      <point x="390" y="632"/>
      <point x="373" y="650"/>
      <point x="350" y="650" type="curve" smooth="yes"/>
      <point x="327" y="650"/>
      <point x="310" y="632"/>
      <point x="310" y="609" type="curve" smooth="yes"/>
      <point x="310" y="587"/>
      <point x="327" y="570"/>
    </contour>
  </outline>
</glyph>
<glyph name="minus" format="2">
  <advance width="426"/>
  <unicode hex="2212"/>
  <outline>
    <contour>
      <point x="119" y="205" type="curve" smooth="yes"/>
      <point x="346" y="205" type="line" smooth="yes"/>
      <point x="364" y="205"/>
      <point x="373" y="217"/>
      <point x="373" y="228" type="curve" smooth="yes"/>
      <point x="373" y="239"/>
      <point x="364" y="250"/>
      <point x="346" y="250" type="curve" smooth="yes"/>
      <point x="119" y="250" type="line" smooth="yes"/>
      <point x="101" y="250"/>
      <point x="92" y="239"/>
      <point x="92" y="228" type="curve" smooth="yes"/>
      <point x="92" y="216"/>
      <point x="101" y="205"/>
    </contour>
  </outline>
</glyph>
<glyph name="infinity" format="2">
  <advance width="699"/>
  <unicode hex="221E"/>
  <outline>
    <contour>
      <point x="157" y="80" type="curve" smooth="yes"/>
      <point x="227" y="80"/>
      <point x="294" y="128"/>
      <point x="357" y="193" type="curve"/>
      <point x="329" y="230" type="line"/>
      <point x="273" y="175"/>
      <point x="214" y="125"/>
      <point x="165" y="125" type="curve" smooth="yes"/>
      <point x="125" y="125"/>
      <point x="107" y="169"/>
      <point x="121" y="227" type="curve" smooth="yes"/>
      <point x="136" y="286"/>
      <point x="165" y="316"/>
      <point x="208" y="316" type="curve" smooth="yes"/>
      <point x="242" y="316"/>
      <point x="278" y="288"/>
      <point x="315" y="233" type="curve" smooth="yes"/>
      <point x="351" y="180" type="line" smooth="yes"/>
      <point x="396" y="114"/>
      <point x="444" y="80"/>
      <point x="491" y="80" type="curve" smooth="yes"/>
      <point x="568" y="80"/>
      <point x="617" y="125"/>
      <point x="637" y="215" type="curve" smooth="yes"/>
      <point x="652" y="281"/>
      <point x="631" y="361"/>
      <point x="550" y="361" type="curve" smooth="yes"/>
      <point x="480" y="361"/>
      <point x="413" y="313"/>
      <point x="350" y="248" type="curve"/>
      <point x="378" y="211" type="line"/>
      <point x="434" y="266"/>
      <point x="493" y="316"/>
      <point x="542" y="316" type="curve" smooth="yes"/>
      <point x="582" y="316"/>
      <point x="600" y="272"/>
      <point x="586" y="214" type="curve" smooth="yes"/>
      <point x="571" y="155"/>
      <point x="542" y="125"/>
      <point x="499" y="125" type="curve" smooth="yes"/>
      <point x="465" y="125"/>
      <point x="429" y="153"/>
      <point x="392" y="208" type="curve" smooth="yes"/>
      <point x="356" y="261" type="line" smooth="yes"/>
      <point x="311" y="327"/>
      <point x="263" y="361"/>
      <point x="216" y="361" type="curve" smooth="yes"/>
      <point x="139" y="361"/>
      <point x="90" y="316"/>
      <point x="70" y="226" type="curve" smooth="yes"/>
      <point x="55" y="160"/>
      <point x="76" y="80"/>
    </contour>
  </outline>
</glyph>
<glyph name="lessequal" format="2">
  <advance width="426"/>
  <unicode hex="2264"/>
  <outline>
    <contour>
      <point x="93" y="129" type="curve" smooth="yes"/>
      <point x="320" y="129" type="line" smooth="yes"/>
      <point x="338" y="129"/>
      <point x="347" y="140"/>
      <point x="347" y="152" type="curve" smooth="yes"/>
      <point x="347" y="163"/>
      <point x="338" y="174"/>
      <point x="320" y="174" type="curve" smooth="yes"/>
      <point x="93" y="174" type="line" smooth="yes"/>
      <point x="75" y="174"/>
      <point x="66" y="162"/>
      <point x="66" y="151" type="curve" smooth="yes"/>
      <point x="66" y="140"/>
      <point x="75" y="129"/>
    </contour>
    <contour>
      <point x="119" y="234" type="curve" smooth="yes"/>
      <point x="346" y="234" type="line" smooth="yes"/>
      <point x="364" y="234"/>
      <point x="373" y="245"/>
      <point x="373" y="257" type="curve" smooth="yes"/>
      <point x="373" y="268"/>
      <point x="364" y="279"/>
      <point x="346" y="279" type="curve" smooth="yes"/>
      <point x="179" y="279" type="line"/>
      <point x="182" y="265" type="line"/>
      <point x="358" y="356" type="line" smooth="yes"/>
      <point x="374" y="364"/>
      <point x="376" y="380"/>
      <point x="368" y="391" type="curve" smooth="yes"/>
      <point x="360" y="401"/>
      <point x="348" y="401"/>
      <point x="331" y="392" type="curve" smooth="yes"/>
      <point x="105" y="276" type="line" smooth="yes"/>
      <point x="96" y="271"/>
      <point x="92" y="264"/>
      <point x="92" y="256" type="curve" smooth="yes"/>
      <point x="92" y="245"/>
      <point x="101" y="234"/>
    </contour>
  </outline>
</glyph>
